<?xml version="1.0" encoding="utf-8"?>
<!-- Generator: Adobe Illustrator 23.0.3, SVG Export Plug-In . SVG Version: 6.00 Build 0)  -->
<svg version="1.1" id="Layer_1" xmlns="http://www.w3.org/2000/svg" xmlns:xlink="http://www.w3.org/1999/xlink" x="0px" y="0px"
	 viewBox="0 0 16 16" style="enable-background:new 0 0 16 16;" xml:space="preserve">
<style type="text/css">
	.st0{fill:#E0E0E0;}
</style>
<path class="st0" d="M11,1c-0.6,0-1,0.4-1,1v3c0,0.6,0.4,1,1,1h3c0.6,0,1-0.4,1-1V2c0-0.6-0.4-1-1-1H11z M6.7,5C6.9,5.3,7,5.6,7,6
	v1.1L9.3,6C9.1,5.7,9,5.4,9,5V3.9L6.7,5z M2,5C1.4,5,1,5.4,1,6v4c0,0.6,0.4,1,1,1h3c0.6,0,1-0.4,1-1V6c0-0.6-0.4-1-1-1H2z M7,8.9V10
	c0,0.4-0.1,0.7-0.3,1L9,12.1V11c0-0.4,0.1-0.7,0.3-1L7,8.9z M11,10c-0.6,0-1,0.4-1,1v3c0,0.6,0.4,1,1,1h3c0.6,0,1-0.4,1-1v-3
	c0-0.6-0.4-1-1-1H11z"/>
</svg>
